<mxfile host="app.diagrams.net" modified="2021-10-03T12:13:21.635Z" agent="5.0 (Windows NT 10.0; Win64; x64) AppleWebKit/537.36 (KHTML, like Gecko) Chrome/94.0.4606.61 Safari/537.36 Edg/94.0.992.31" etag="8kloEaDivMIwpOjW7abf" version="15.3.8" type="github">
  <diagram id="HWF6cFD_o7p9VQBaK8Nd" name="Page-1">
    <mxGraphModel dx="1422" dy="850" grid="1" gridSize="10" guides="1" tooltips="1" connect="1" arrows="1" fold="1" page="1" pageScale="1" pageWidth="1169" pageHeight="827" background="none" math="0" shadow="0">
      <root>
        <mxCell id="0" />
        <mxCell id="1" parent="0" />
        <mxCell id="LRYR7kt2hS8zzGMO_R-A-9" value="&amp;nbsp;filter" style="edgeStyle=orthogonalEdgeStyle;rounded=0;orthogonalLoop=1;jettySize=auto;html=1;labelPosition=left;verticalLabelPosition=top;align=right;verticalAlign=bottom;fontStyle=2;entryX=1;entryY=0.5;entryDx=0;entryDy=0;entryPerimeter=0;" parent="1" source="32pcUigWsBj-OOpQZ1Kn-1" target="LRYR7kt2hS8zzGMO_R-A-2" edge="1">
          <mxGeometry relative="1" as="geometry">
            <mxPoint x="830" y="100" as="targetPoint" />
            <Array as="points">
              <mxPoint x="719" y="170" />
              <mxPoint x="840" y="170" />
              <mxPoint x="840" y="100" />
            </Array>
          </mxGeometry>
        </mxCell>
        <mxCell id="LRYR7kt2hS8zzGMO_R-A-11" value="filter" style="edgeStyle=orthogonalEdgeStyle;rounded=0;orthogonalLoop=1;jettySize=auto;html=1;labelPosition=left;verticalLabelPosition=top;align=right;verticalAlign=bottom;fontStyle=2" parent="1" source="32pcUigWsBj-OOpQZ1Kn-1" target="32pcUigWsBj-OOpQZ1Kn-5" edge="1">
          <mxGeometry relative="1" as="geometry">
            <Array as="points">
              <mxPoint x="719" y="170" />
              <mxPoint x="580" y="170" />
              <mxPoint x="580" y="137" />
            </Array>
          </mxGeometry>
        </mxCell>
        <mxCell id="txCRSm0sxxDcbwHXg60d-5" value="stats" style="edgeStyle=orthogonalEdgeStyle;rounded=0;orthogonalLoop=1;jettySize=auto;html=1;fontColor=#000000;fontStyle=2;labelPosition=center;verticalLabelPosition=top;align=center;verticalAlign=bottom;" edge="1" parent="1" source="32pcUigWsBj-OOpQZ1Kn-1" target="aqjGa1b1h-gu6OBOAQX7-1">
          <mxGeometry relative="1" as="geometry" />
        </mxCell>
        <mxCell id="32pcUigWsBj-OOpQZ1Kn-1" value="&amp;nbsp;BLOOM FILTERS" style="aspect=fixed;html=1;points=[];align=left;image;fontSize=12;image=img/lib/mscae/Cache_Redis_Product.svg;labelPosition=right;verticalLabelPosition=middle;verticalAlign=middle;labelBackgroundColor=none;" parent="1" vertex="1">
          <mxGeometry x="694" y="197" width="50" height="42" as="geometry" />
        </mxCell>
        <mxCell id="aqjGa1b1h-gu6OBOAQX7-2" style="edgeStyle=orthogonalEdgeStyle;rounded=0;orthogonalLoop=1;jettySize=auto;html=1;" parent="1" source="32pcUigWsBj-OOpQZ1Kn-2" target="32pcUigWsBj-OOpQZ1Kn-5" edge="1">
          <mxGeometry relative="1" as="geometry">
            <Array as="points">
              <mxPoint x="550" y="103" />
              <mxPoint x="550" y="120" />
            </Array>
          </mxGeometry>
        </mxCell>
        <mxCell id="32pcUigWsBj-OOpQZ1Kn-2" value="HOME WORKERS" style="aspect=fixed;html=1;points=[];align=center;image;fontSize=12;image=img/lib/mscae/Docker.svg;labelPosition=center;verticalLabelPosition=top;verticalAlign=bottom;labelBackgroundColor=none;direction=east;" parent="1" vertex="1">
          <mxGeometry x="600" y="82" width="50" height="41" as="geometry" />
        </mxCell>
        <mxCell id="32pcUigWsBj-OOpQZ1Kn-7" value="store downloaded data&amp;nbsp;" style="edgeStyle=orthogonalEdgeStyle;rounded=0;orthogonalLoop=1;jettySize=auto;html=1;labelPosition=left;verticalLabelPosition=middle;align=right;verticalAlign=middle;fontStyle=2" parent="1" source="32pcUigWsBj-OOpQZ1Kn-3" target="32pcUigWsBj-OOpQZ1Kn-5" edge="1">
          <mxGeometry relative="1" as="geometry" />
        </mxCell>
        <mxCell id="32pcUigWsBj-OOpQZ1Kn-3" value="SINGLE CPU WORKERS SWARMS&amp;nbsp;&lt;br&gt;MULTICPU WORKER DC NODES&amp;nbsp;&lt;br&gt;VM OR BARE METAL&amp;nbsp;" style="pointerEvents=1;shadow=0;dashed=0;html=1;strokeColor=none;fillColor=#505050;labelPosition=left;verticalLabelPosition=middle;verticalAlign=middle;outlineConnect=0;align=right;shape=mxgraph.office.servers.server_farm;fillColor=#7FBA42;" parent="1" vertex="1">
          <mxGeometry x="480" y="30" width="56" height="49" as="geometry" />
        </mxCell>
        <mxCell id="32pcUigWsBj-OOpQZ1Kn-15" value="pass metadata to permanent storage&amp;nbsp;" style="edgeStyle=orthogonalEdgeStyle;rounded=0;orthogonalLoop=1;jettySize=auto;html=1;labelPosition=left;verticalLabelPosition=middle;align=right;verticalAlign=middle;fontStyle=2" parent="1" source="32pcUigWsBj-OOpQZ1Kn-4" target="32pcUigWsBj-OOpQZ1Kn-14" edge="1">
          <mxGeometry relative="1" as="geometry" />
        </mxCell>
        <mxCell id="aqjGa1b1h-gu6OBOAQX7-8" value="update bloom filters" style="edgeStyle=orthogonalEdgeStyle;rounded=0;orthogonalLoop=1;jettySize=auto;html=1;fontColor=#000000;labelPosition=left;verticalLabelPosition=top;align=right;verticalAlign=bottom;fontStyle=2" parent="1" source="32pcUigWsBj-OOpQZ1Kn-4" edge="1">
          <mxGeometry relative="1" as="geometry">
            <mxPoint x="720" y="240" as="targetPoint" />
          </mxGeometry>
        </mxCell>
        <mxCell id="32pcUigWsBj-OOpQZ1Kn-4" value="MAIN STAGING&amp;nbsp;" style="pointerEvents=1;shadow=0;dashed=0;html=1;strokeColor=none;labelPosition=left;verticalLabelPosition=middle;verticalAlign=middle;outlineConnect=0;align=right;shape=mxgraph.office.servers.server_generic;fillColor=#2072B8;" parent="1" vertex="1">
          <mxGeometry x="494.5" y="280" width="27" height="52" as="geometry" />
        </mxCell>
        <mxCell id="32pcUigWsBj-OOpQZ1Kn-8" value="serve downloaded data to GPU&amp;nbsp;" style="edgeStyle=orthogonalEdgeStyle;rounded=0;orthogonalLoop=1;jettySize=auto;html=1;labelPosition=left;verticalLabelPosition=middle;align=right;verticalAlign=middle;fontStyle=2" parent="1" source="32pcUigWsBj-OOpQZ1Kn-5" target="32pcUigWsBj-OOpQZ1Kn-6" edge="1">
          <mxGeometry relative="1" as="geometry" />
        </mxCell>
        <mxCell id="32pcUigWsBj-OOpQZ1Kn-5" value="DL STAGING&amp;nbsp;" style="pointerEvents=1;shadow=0;dashed=0;html=1;strokeColor=none;labelPosition=left;verticalLabelPosition=middle;verticalAlign=middle;outlineConnect=0;align=right;shape=mxgraph.office.servers.server_generic;fillColor=#DA4026;" parent="1" vertex="1">
          <mxGeometry x="495" y="111" width="27" height="52" as="geometry" />
        </mxCell>
        <mxCell id="32pcUigWsBj-OOpQZ1Kn-9" value="store filtered metadata&amp;nbsp;" style="edgeStyle=orthogonalEdgeStyle;rounded=0;orthogonalLoop=1;jettySize=auto;html=1;labelPosition=left;verticalLabelPosition=middle;align=right;verticalAlign=middle;fontStyle=2" parent="1" source="32pcUigWsBj-OOpQZ1Kn-6" target="32pcUigWsBj-OOpQZ1Kn-4" edge="1">
          <mxGeometry relative="1" as="geometry" />
        </mxCell>
        <mxCell id="32pcUigWsBj-OOpQZ1Kn-6" value="GPU INFERENCE NODES&amp;nbsp;" style="pointerEvents=1;shadow=0;dashed=0;html=1;strokeColor=none;labelPosition=left;verticalLabelPosition=middle;verticalAlign=middle;outlineConnect=0;align=right;shape=mxgraph.office.devices.workstation;fillColor=#545454;" parent="1" vertex="1">
          <mxGeometry x="482" y="190" width="53" height="56" as="geometry" />
        </mxCell>
        <mxCell id="32pcUigWsBj-OOpQZ1Kn-18" value="read metadata" style="edgeStyle=orthogonalEdgeStyle;rounded=0;orthogonalLoop=1;jettySize=auto;html=1;entryX=0.523;entryY=-0.007;entryDx=0;entryDy=0;entryPerimeter=0;labelPosition=right;verticalLabelPosition=top;align=left;verticalAlign=bottom;fontStyle=2" parent="1" source="32pcUigWsBj-OOpQZ1Kn-14" target="32pcUigWsBj-OOpQZ1Kn-17" edge="1">
          <mxGeometry relative="1" as="geometry" />
        </mxCell>
        <mxCell id="32pcUigWsBj-OOpQZ1Kn-14" value="" style="aspect=fixed;html=1;points=[];align=center;image;fontSize=12;image=img/lib/mscae/Discs.svg;" parent="1" vertex="1">
          <mxGeometry x="483" y="386" width="50" height="42" as="geometry" />
        </mxCell>
        <mxCell id="32pcUigWsBj-OOpQZ1Kn-16" value="" style="aspect=fixed;html=1;points=[];align=center;image;fontSize=12;image=img/lib/mscae/Discs.svg;" parent="1" vertex="1">
          <mxGeometry x="483" y="486" width="50" height="42" as="geometry" />
        </mxCell>
        <mxCell id="32pcUigWsBj-OOpQZ1Kn-21" value="reconstruct&lt;br&gt;webdataset" style="edgeStyle=orthogonalEdgeStyle;rounded=0;orthogonalLoop=1;jettySize=auto;html=1;labelPosition=center;verticalLabelPosition=top;align=center;verticalAlign=bottom;fontStyle=2" parent="1" source="32pcUigWsBj-OOpQZ1Kn-17" target="32pcUigWsBj-OOpQZ1Kn-20" edge="1">
          <mxGeometry relative="1" as="geometry">
            <Array as="points">
              <mxPoint x="719" y="514" />
            </Array>
          </mxGeometry>
        </mxCell>
        <mxCell id="32pcUigWsBj-OOpQZ1Kn-17" value="&amp;nbsp;IMG2DATASET" style="aspect=fixed;html=1;points=[];align=left;image;fontSize=12;image=img/lib/mscae/Cloud_Service.svg;labelPosition=right;verticalLabelPosition=middle;verticalAlign=middle;labelBackgroundColor=none;" parent="1" vertex="1">
          <mxGeometry x="694" y="440" width="50" height="42" as="geometry" />
        </mxCell>
        <mxCell id="32pcUigWsBj-OOpQZ1Kn-20" value="STORAGE" style="whiteSpace=wrap;html=1;aspect=fixed;dashed=1;rounded=1;fillColor=none;" parent="1" vertex="1">
          <mxGeometry x="413" y="367" width="193" height="193" as="geometry" />
        </mxCell>
        <mxCell id="aqjGa1b1h-gu6OBOAQX7-3" value="gpu jobs" style="edgeStyle=orthogonalEdgeStyle;rounded=0;orthogonalLoop=1;jettySize=auto;html=1;labelPosition=center;verticalLabelPosition=top;align=center;verticalAlign=bottom;fontStyle=2" parent="1" source="aqjGa1b1h-gu6OBOAQX7-1" target="32pcUigWsBj-OOpQZ1Kn-6" edge="1">
          <mxGeometry relative="1" as="geometry" />
        </mxCell>
        <mxCell id="aqjGa1b1h-gu6OBOAQX7-9" value="clean" style="edgeStyle=orthogonalEdgeStyle;rounded=0;orthogonalLoop=1;jettySize=auto;html=1;fontColor=#000000;labelPosition=right;verticalLabelPosition=top;align=left;verticalAlign=bottom;fontStyle=2" parent="1" source="aqjGa1b1h-gu6OBOAQX7-1" target="32pcUigWsBj-OOpQZ1Kn-5" edge="1">
          <mxGeometry relative="1" as="geometry">
            <Array as="points">
              <mxPoint x="625" y="150" />
            </Array>
          </mxGeometry>
        </mxCell>
        <mxCell id="LRYR7kt2hS8zzGMO_R-A-10" value="preprocessing jobs" style="edgeStyle=orthogonalEdgeStyle;rounded=0;orthogonalLoop=1;jettySize=auto;html=1;labelPosition=center;verticalLabelPosition=top;align=center;verticalAlign=bottom;fontStyle=2;entryX=0.5;entryY=1;entryDx=0;entryDy=0;entryPerimeter=0;" parent="1" source="aqjGa1b1h-gu6OBOAQX7-1" target="LRYR7kt2hS8zzGMO_R-A-2" edge="1">
          <mxGeometry relative="1" as="geometry">
            <Array as="points">
              <mxPoint x="625" y="150" />
              <mxPoint x="803" y="150" />
              <mxPoint x="803" y="125" />
            </Array>
            <mxPoint x="803" y="150" as="targetPoint" />
          </mxGeometry>
        </mxCell>
        <mxCell id="aqjGa1b1h-gu6OBOAQX7-1" value="TRACKER" style="pointerEvents=1;shadow=0;dashed=0;html=1;strokeColor=none;labelPosition=center;verticalLabelPosition=bottom;verticalAlign=top;outlineConnect=0;align=center;shape=mxgraph.office.servers.sql_server;fillColor=#D4AB84;" parent="1" vertex="1">
          <mxGeometry x="603" y="190" width="43" height="56" as="geometry" />
        </mxCell>
        <mxCell id="txCRSm0sxxDcbwHXg60d-2" style="edgeStyle=orthogonalEdgeStyle;rounded=0;orthogonalLoop=1;jettySize=auto;html=1;entryX=1.03;entryY=0.427;entryDx=0;entryDy=0;entryPerimeter=0;" edge="1" parent="1" source="LRYR7kt2hS8zzGMO_R-A-1" target="32pcUigWsBj-OOpQZ1Kn-2">
          <mxGeometry relative="1" as="geometry" />
        </mxCell>
        <mxCell id="txCRSm0sxxDcbwHXg60d-3" value="download jobs" style="edgeStyle=orthogonalEdgeStyle;rounded=0;orthogonalLoop=1;jettySize=auto;html=1;labelPosition=center;verticalLabelPosition=top;align=center;verticalAlign=bottom;fontStyle=2" edge="1" parent="1" source="LRYR7kt2hS8zzGMO_R-A-1" target="32pcUigWsBj-OOpQZ1Kn-3">
          <mxGeometry relative="1" as="geometry">
            <Array as="points">
              <mxPoint x="680" y="100" />
              <mxPoint x="680" y="55" />
            </Array>
          </mxGeometry>
        </mxCell>
        <mxCell id="LRYR7kt2hS8zzGMO_R-A-1" value="&amp;nbsp;noSQL" style="sketch=0;aspect=fixed;html=1;points=[];align=center;image;fontSize=12;image=img/lib/mscae/Database_General.svg;rounded=1;labelPosition=center;verticalLabelPosition=top;verticalAlign=bottom;" parent="1" vertex="1">
          <mxGeometry x="700" y="75" width="38" height="50" as="geometry" />
        </mxCell>
        <mxCell id="LRYR7kt2hS8zzGMO_R-A-4" style="edgeStyle=orthogonalEdgeStyle;rounded=0;orthogonalLoop=1;jettySize=auto;html=1;" parent="1" source="LRYR7kt2hS8zzGMO_R-A-2" target="LRYR7kt2hS8zzGMO_R-A-1" edge="1">
          <mxGeometry relative="1" as="geometry" />
        </mxCell>
        <mxCell id="LRYR7kt2hS8zzGMO_R-A-2" value="CC &lt;br&gt;PREPROCESSOR" style="sketch=0;aspect=fixed;pointerEvents=1;shadow=0;dashed=0;html=1;strokeColor=none;labelPosition=center;verticalLabelPosition=top;verticalAlign=bottom;align=center;fillColor=#00188D;shape=mxgraph.mscae.enterprise.cluster_server;rounded=1;" parent="1" vertex="1">
          <mxGeometry x="781" y="75" width="40" height="50" as="geometry" />
        </mxCell>
      </root>
    </mxGraphModel>
  </diagram>
</mxfile>
